<?xml version="1.0" encoding="UTF-8"?>
<svg xmlns="http://www.w3.org/2000/svg" version="1.1" viewBox="0 0 795.87 213.1">
  <!-- Generator: Adobe Illustrator 30.5.1, SVG Export Plug-In . SVG Version: 2.1.4 Build 3)  -->
  <defs>
    <style>
      .st0 {
        display: none;
      }

      .st0, .st1, .st2 {
        fill: #eb691c;
      }

      .st3 {
        fill: #fff;
      }

      .st1 {
        font-family: ArialMT, Arial;
        font-size: 31px;
      }

      .st4 {
        fill: #7d7d7d;
      }
    </style>
  </defs>
  <g id="Hintergrund">
    <rect class="st4" y=".18" width="775.53" height="125.8"/>
  </g>
  <g id="ALWIT">
    <path class="st3" d="M268.29,30.44l-17.53,18.3h141.93v6.33h-101.23v35.23h128.25V30.27l-151.41.17ZM392.34,76.27h-72.33v-6.5l72.33.17v6.33Z"/>
    <path class="st3" d="M427.91.17"/>
    <polygon class="st3" points="465.19 30.61 491.86 30.61 491.86 74.56 539.4 74.56 539.4 30.44 565.91 30.44 565.91 74.21 611.74 74.21 611.74 30.44 637.22 30.44 637.22 90.12 465.19 90.12 465.19 30.61"/>
    <polygon class="st3" points="644.06 .17 671.25 .17 671.25 26.68 644.23 26.68 644.06 .17"/>
    <polygon class="st3" points="644.06 30.44 671.42 30.44 671.42 90.46 644.23 90.46 644.06 30.44"/>
    <polygon class="st3" points="677.58 0 706.82 0 706.82 32.66 775.73 32.66 775.73 48.91 706.82 48.91 706.82 74.39 751.62 74.39 751.62 64.98 775.56 64.98 775.56 90.12 677.92 90.12 677.58 0"/>
    <polygon class="st3" points="427.74 90.46 456.98 90.46 456.98 .17 427.91 .17 427.74 90.46"/>
  </g>
  <g id="Orange">
    <polyline class="st0" points="186.34 .17 224.19 .17 92.12 125.98 54.72 125.98 186.34 .17"/>
    <polyline class="st0" points="139.14 .17 173.3 .17 41.23 125.98 9.5 125.98 141.69 .17"/>
    <polyline class="st2" points="98.15 .17 132.31 .17 .05 125.98 0 125.98 .27 .17"/>
    <polygon class="st2" points="245.31 .17 113.4 125.98 135.2 125.98 267.27 .17 236.8 .17 245.31 .17"/>
    <polygon class="st2" points="295.7 .17 163.79 125.98 176.22 125.98 308.87 .17 287.18 .17 295.7 .17"/>
    <text class="st1" transform="translate(398.59 171.66)"><tspan x="0" y="0">... mit Sicherheit Ihr Partner</tspan></text>
    <polyline class="st2" points="191.04 .17 225.2 .17 93.13 125.98 61.4 125.98 193.59 .17"/>
    <polyline class="st2" points="141.13 .17 178.98 .17 46.9 125.98 9.5 125.98 141.13 .17"/>
  </g>
</svg>