<?xml version="1.0" encoding="UTF-8" standalone="no"?>
<!-- Created with Inkscape (http://www.inkscape.org/) -->

<svg
   version="1.1"
   id="svg1"
   width="3749.2932"
   height="767.17334"
   viewBox="0 0 3749.2932 767.17334"
   sodipodi:docname="Voba_Emmerich_Rees_Logo_Text_rechts.eps"
   xmlns:inkscape="http://www.inkscape.org/namespaces/inkscape"
   xmlns:sodipodi="http://sodipodi.sourceforge.net/DTD/sodipodi-0.dtd"
   xmlns="http://www.w3.org/2000/svg"
   xmlns:svg="http://www.w3.org/2000/svg">
  <defs
     id="defs1" />
  <sodipodi:namedview
     id="namedview1"
     pagecolor="#ffffff"
     bordercolor="#000000"
     borderopacity="0.25"
     inkscape:showpageshadow="2"
     inkscape:pageopacity="0.0"
     inkscape:pagecheckerboard="0"
     inkscape:deskcolor="#d1d1d1">
    <inkscape:page
       x="0"
       y="0"
       inkscape:label="1"
       id="page1"
       width="3749.2932"
       height="767.17334"
       margin="0"
       bleed="0" />
  </sodipodi:namedview>
  <g
     id="g1"
     inkscape:groupmode="layer"
     inkscape:label="1">
    <g
       id="group-R5">
      <path
         id="path2"
         d="M 7183.77,537.191 V 1360.14 H 4553.1 C 4481.5,982.621 4420.76,661.781 4397.03,537.191 h 2786.74"
         style="fill:#f25b19;fill-opacity:1;fill-rule:nonzero;stroke:none"
         transform="matrix(0.13333333,0,0,-0.13333333,0,767.17333)" />
      <path
         id="path3"
         d="M 282.723,1360.31 V 537.32 H 3049.31 l -184.59,822.99 H 282.723"
         style="fill:#f25b19;fill-opacity:1;fill-rule:nonzero;stroke:none"
         transform="matrix(0.13333333,0,0,-0.13333333,0,767.17333)" />
      <path
         id="path4"
         d="m 1642.23,3299.43 -201.63,851.32 h 1718.29 l 556.37,-2443.91 h 23.72 l 350.58,1565.65 c 176.52,710.66 243.17,878.26 1238.59,878.26 h 715.87 c 0,0 -144.59,-655.31 -324.53,-1366.34 -68.5,-271.18 -666.26,-238.96 -636.36,14.2 3.11,26.48 31.63,217.05 53.78,352.74 32.54,195.37 -194.03,219.53 -234.79,26.36 -29.31,-138.17 -160.39,-825.03 -283.18,-1470.87 H 7183.78 V 5215.77 H 282.73 V 1706.84 h 2504.5 l -356.75,1591.38 -788.25,1.21"
         style="fill:#2c60b5;fill-opacity:1;fill-rule:nonzero;stroke:none"
         transform="matrix(0.13333333,0,0,-0.13333333,0,767.17333)" />
      <path
         id="path5"
         d="m 9618.53,1242.26 v 280.62 h -683.88 v 353.72 h 716.89 v 287.71 H 8611.58 V 584.309 H 9665.7 v 294.793 h -731.05 v 363.158 z m 1509.27,521.16 c -78.6,0 -146.6,-16.92 -204,-50.71 -57.4,-33.84 -101,-83.72 -130.9,-149.74 h -4.7 c -26.8,64.44 -66,113.98 -117.9,148.56 -51.9,34.58 -113.2,51.89 -183.9,51.89 -80.2,0 -149,-17.31 -206.4,-51.89 -57.4,-34.58 -99.4,-84.12 -126.1,-148.56 h -7.1 l -18.9,169.8 h -273.52 l 47.14,-492.87 V 584.309 h 308.98 v 723.961 c 0,51.9 15.3,94.35 46,127.35 30.6,33.01 70.3,49.53 119,49.53 50.3,0 90.4,-16.13 120.3,-48.35 29.8,-32.22 44.8,-75.1 44.8,-128.53 V 584.309 h 306.6 v 723.961 c 0,51.9 15.3,94.35 46,127.35 30.6,33.01 70.3,49.53 119.1,49.53 50.2,0 90.3,-16.13 120.2,-48.35 29.8,-32.22 44.8,-75.1 44.8,-128.53 V 584.309 h 308.9 v 764.051 c 0,125.78 -32.2,226.42 -96.7,301.87 -64.4,75.46 -151.7,113.19 -261.7,113.19 m 1860.5,0 c -78.6,0 -146.5,-16.92 -203.9,-50.71 -57.4,-33.84 -101.1,-83.72 -130.9,-149.74 h -4.7 c -26.8,64.44 -66,113.98 -117.9,148.56 -51.9,34.58 -113.2,51.89 -184,51.89 -80.2,0 -148.9,-17.31 -206.3,-51.89 -57.4,-34.58 -99.4,-84.12 -126.2,-148.56 h -7 l -18.9,169.8 h -273.6 l 47.2,-492.87 V 584.309 h 308.9 v 723.961 c 0,51.9 15.4,94.35 46,127.35 30.7,33.01 70.4,49.53 119.1,49.53 50.3,0 90.4,-16.13 120.3,-48.35 29.8,-32.22 44.8,-75.1 44.8,-128.53 V 584.309 h 306.5 v 723.961 c 0,51.9 15.4,94.35 46,127.35 30.7,33.01 70.4,49.53 119.1,49.53 50.3,0 90.4,-16.13 120.3,-48.35 29.8,-32.22 44.8,-75.1 44.8,-128.53 V 584.309 h 308.9 v 764.051 c 0,125.78 -32.2,226.42 -96.7,301.87 -64.5,75.46 -151.7,113.19 -261.8,113.19 m 1641.3,-591.9 c 0,117.91 -21.6,221.65 -64.8,311.27 -43.3,89.62 -104.6,158.79 -184,207.53 -79.4,48.71 -171.8,73.1 -277,73.1 -108.5,0 -204.8,-25.57 -288.9,-76.64 -84.1,-51.1 -149.8,-122.27 -196.9,-213.43 -47.2,-91.19 -70.8,-194.94 -70.8,-311.27 0,-188.639 51.1,-337.24 153.3,-445.701 102.2,-108.469 246,-162.719 431.6,-162.719 99,0 189.8,16.129 272.3,48.352 82.6,32.218 150.5,75.847 204,130.886 l -136.8,207.532 c -95.9,-81.789 -207.5,-122.629 -334.8,-122.629 -84.9,0 -152.1,21.988 -201.7,66.019 -49.5,43.981 -78.2,102.168 -86,174.52 h 771.1 c 6.3,36.11 9.4,73.84 9.4,113.18 m -528.2,339.56 c 69.2,0 124.6,-21.6 166.3,-64.83 41.6,-43.28 66.3,-104.18 74.2,-182.79 h -492.8 c 9.4,75.5 35.7,135.62 79,180.43 43.2,44.81 101,67.19 173.3,67.19 m 1322.9,252.34 c -77,0 -143.5,-22.39 -199.3,-67.2 -55.8,-44.81 -94.7,-104.17 -116.7,-178.06 h -4.7 l -18.9,214.61 h -282.9 l 47.1,-504.67 V 584.309 h 308.9 v 620.221 c 0,76.99 22.8,139.51 68.4,187.46 45.6,47.96 103.8,71.92 174.5,71.92 37.8,0 75.5,-6.29 113.2,-18.84 l 30.7,299.46 c -37.7,12.59 -77.8,18.89 -120.3,18.89 m 431.5,132.07 c 55.1,0 100.3,16.88 135.7,50.67 35.3,33.8 53,77.43 53,130.89 0,53.43 -17.7,97.06 -53,130.89 -35.4,33.8 -80.6,50.71 -135.7,50.71 -53.4,0 -98.2,-17.35 -134.4,-51.89 -36.1,-34.62 -54.2,-77.82 -54.2,-129.71 0,-53.46 18.1,-97.09 54.2,-130.89 36.2,-33.79 81,-50.67 134.4,-50.67 m 153.3,-162.72 h -306.5 V 584.352 h 306.5 z m 1233.3,-141.51 c -106.9,114.76 -247.6,172.16 -422.1,172.16 -119.5,0 -224.8,-25.18 -316,-75.46 -91.2,-50.36 -161.9,-121.09 -212.2,-212.25 -50.3,-91.19 -75.5,-195.72 -75.5,-313.63 0,-117.91 24.8,-223.26 74.3,-315.99 49.5,-92.77 119.9,-164.731 211.1,-215.789 91.1,-51.071 196.5,-76.641 316,-76.641 188.6,0 332.5,55.789 431.5,167.442 l -153.3,214.609 c -61.3,-70.781 -149.4,-106.152 -264.1,-106.152 -94.3,0 -167.8,29.863 -220.5,89.621 -52.7,59.73 -79,139.9 -79,240.54 0,102.17 27.2,183.53 81.4,244.08 54.2,60.5 128.5,90.8 222.8,90.8 100.6,0 186.3,-36.98 257.1,-110.87 z m 823,172.16 c -75.5,0 -142.3,-15.74 -200.4,-47.17 -58.2,-31.48 -99.9,-73.1 -125,-124.99 h -4.7 v 639.07 h -306.6 V 584.309 h 306.6 v 693.321 c 0,59.72 19.6,109.25 58.9,148.55 39.3,39.3 88.1,58.97 146.3,58.97 61.2,0 110.8,-19.27 148.5,-57.79 37.7,-38.51 56.6,-88.4 56.6,-149.73 V 584.309 h 306.6 v 733.411 c 0,135.17 -35,243.25 -105,324.25 -69.9,80.97 -163.9,121.45 -281.8,121.45 m 1473.9,-233.46 h -853.7 v -294.78 h 853.7 z M 21081.5,584.309 20690,1197.45 c 102.2,39.3 181.6,99.42 238.2,180.42 56.6,80.93 84.9,171.73 84.9,272.36 0,92.73 -21.6,178.42 -64.8,257.02 -43.3,78.61 -108.9,141.12 -197,187.51 -88,46.34 -194.9,69.55 -320.6,69.55 h -625 V 584.309 h 323.1 v 568.331 h 212.2 l 356.1,-568.331 z m -674.4,1297.021 c 95.8,0 167,-22.04 213.4,-66.02 46.3,-44.06 69.5,-98.28 69.5,-162.72 0,-64.48 -23.2,-118.73 -69.5,-162.71 -46.4,-44.03 -117.6,-66.06 -213.4,-66.06 h -278.3 v 457.51 z m 1822.8,-709.81 c 0,117.91 -21.6,221.65 -64.8,311.27 -43.3,89.62 -104.6,158.79 -184,207.53 -79.4,48.71 -171.7,73.1 -277.1,73.1 -108.4,0 -204.7,-25.57 -288.8,-76.64 -84.2,-51.1 -149.8,-122.27 -197,-213.43 -47.1,-91.19 -70.7,-194.94 -70.7,-311.27 0,-188.639 51.1,-337.24 153.3,-445.701 102.2,-108.469 246,-162.719 431.6,-162.719 99,0 189.8,16.129 272.3,48.352 82.6,32.218 150.5,75.847 204,130.886 l -136.8,207.532 c -95.9,-81.789 -207.5,-122.629 -334.8,-122.629 -84.9,0 -152.1,21.988 -201.6,66.019 -49.6,43.981 -78.3,102.168 -86.1,174.52 h 771.1 c 6.3,36.11 9.4,73.84 9.4,113.18 m -528.2,339.56 c 69.1,0 124.6,-21.6 166.2,-64.83 41.7,-43.28 66.4,-104.18 74.3,-182.79 h -492.8 c 9.4,75.5 35.7,135.62 79,180.43 43.2,44.81 101,67.19 173.3,67.19 m 1754.5,-339.56 c 0,117.91 -21.7,221.65 -64.9,311.27 -43.2,89.62 -104.6,158.79 -183.9,207.53 -79.4,48.71 -171.8,73.1 -277.1,73.1 -108.5,0 -204.8,-25.57 -288.9,-76.64 -84.1,-51.1 -149.7,-122.27 -196.9,-213.43 -47.2,-91.19 -70.7,-194.94 -70.7,-311.27 0,-188.639 51,-337.24 153.2,-445.701 102.2,-108.469 246.1,-162.719 431.6,-162.719 99,0 189.8,16.129 272.3,48.352 82.6,32.218 150.6,75.847 204,130.886 l -136.7,207.532 c -95.9,-81.789 -207.6,-122.629 -334.9,-122.629 -84.9,0 -152.1,21.988 -201.6,66.019 -49.6,43.981 -78.2,102.168 -86.1,174.52 h 771.1 c 6.3,36.11 9.5,73.84 9.5,113.18 m -528.3,339.56 c 69.2,0 124.6,-21.6 166.3,-64.83 41.6,-43.28 66.4,-104.18 74.3,-182.79 h -492.9 c 9.4,75.5 35.7,135.62 79,180.43 43.2,44.81 101,67.19 173.3,67.19 M 23574,695.172 c 53.5,-44.063 121.5,-78.641 204,-103.781 82.6,-25.102 170.2,-37.731 263,-37.731 133.6,0 240.1,33.012 319.5,99.059 79.4,66.019 119.1,155.64 119.1,268.82 0,84.901 -21.6,153.671 -64.9,206.351 -43.2,52.64 -114.3,97.06 -213.4,133.25 l -183.9,73.1 c -29.9,10.98 -51.9,23.57 -66,37.73 -14.2,14.12 -21.3,32.18 -21.3,54.21 0,25.14 9.8,45.2 29.5,60.15 19.7,14.92 47.5,22.39 83.7,22.39 55,0 113.6,-9.84 175.7,-29.47 62.1,-19.67 112.8,-44.41 152.1,-74.27 l 101.4,221.65 c -48.7,42.45 -111.6,75.85 -188.7,100.24 -77,24.35 -160.3,36.55 -249.9,36.55 -124.2,0 -223.7,-31.83 -298.3,-95.52 -74.7,-63.66 -112,-145.84 -112,-246.4 0,-81.79 22.3,-149.77 67.2,-203.99 44.8,-54.25 113.5,-99.45 206.3,-135.61 l 186.3,-70.73 c 59.8,-22.041 89.6,-55.041 89.6,-99.068 0,-29.864 -12.2,-53.461 -36.5,-70.731 -24.4,-17.312 -59.4,-25.93 -105,-25.93 -64.4,0 -125,9.797 -181.6,29.469 -56.5,19.629 -106.1,46.738 -148.5,81.36 z m 2627,476.348 c 0,117.91 -21.6,221.65 -64.8,311.27 -43.3,89.62 -104.6,158.79 -184,207.53 -79.4,48.71 -171.8,73.1 -277,73.1 -108.5,0 -204.9,-25.57 -288.9,-76.64 -84.1,-51.1 -149.8,-122.27 -196.9,-213.43 -47.2,-91.19 -70.8,-194.94 -70.8,-311.27 0,-188.639 51.1,-337.24 153.3,-445.701 102.2,-108.469 246,-162.719 431.5,-162.719 99.1,0 189.9,16.129 272.4,48.352 82.5,32.218 150.5,75.847 204,130.886 L 26043,940.43 c -95.9,-81.789 -207.5,-122.629 -334.8,-122.629 -84.9,0 -152.2,21.988 -201.7,66.019 -49.5,43.981 -78.2,102.168 -86,174.52 h 771.1 c 6.2,36.11 9.4,73.84 9.4,113.18 m -528.2,339.56 c 69.2,0 124.6,-21.6 166.2,-64.83 41.7,-43.28 66.4,-104.18 74.3,-182.79 h -492.8 c 9.4,75.5 35.7,135.62 79,180.43 43.2,44.81 100.9,67.19 173.3,67.19 m 2153,-51.85 h -759.4 v -271.22 h 445.7 c -9.4,-97.49 -47.5,-178.42 -114.3,-242.901 -66.9,-64.48 -160,-96.66 -279.5,-96.66 -138.3,0 -246.8,46.742 -325.4,140.289 -78.7,93.522 -117.9,222.872 -117.9,387.952 0,161.89 38.5,290.81 115.5,386.73 77.1,95.87 180.8,143.83 311.3,143.83 88.1,0 165.9,-22.38 233.5,-67.19 67.5,-44.81 116.3,-104.93 146.2,-180.39 l 278.3,139.12 c -48.8,122.63 -131.3,219.33 -247.7,290.06 -116.3,70.74 -253.1,106.11 -410.3,106.11 -146.2,0 -276.7,-34.58 -391.4,-103.75 -114.8,-69.2 -204,-166.25 -267.7,-291.24 -63.7,-124.99 -95.5,-266.9 -95.5,-425.64 0,-163.54 30.6,-306.98 92,-430.4 61.3,-123.41 148.9,-219.289 262.9,-287.668 114,-68.41 247.2,-102.602 399.7,-102.602 151,0 281,32.61 390.3,97.879 109.3,65.231 192.6,157.609 250,277.09 57.4,119.441 86,259.381 86,419.731 0,50.32 -0.8,87.26 -2.3,110.87"
         style="fill:#2c60b5;fill-opacity:1;fill-rule:nonzero;stroke:none"
         transform="matrix(0.13333333,0,0,-0.13333333,0,767.17333)" />
      <path
         id="path6"
         d="M 9380.11,3720.71 9005.15,4994.13 H 8646.7 L 9174.94,3414.16 H 9590 l 530.6,1579.97 H 9771.56 L 9389.55,3720.71 Z m 690.99,271.18 c 0,-117.9 23.9,-222.83 71.9,-314.81 47.9,-91.98 115.9,-163.9 204,-215.79 88,-51.85 189.4,-77.82 304.2,-77.82 114.7,0 216.1,25.97 304.2,77.82 88,51.89 156.4,124.2 205.2,216.97 48.7,92.73 73.1,197.3 73.1,313.63 0,116.34 -24,220.08 -72,311.27 -47.9,91.2 -116.3,162.33 -205.1,213.43 -88.9,51.07 -190.7,76.64 -305.4,76.64 -114.8,0 -216.2,-25.57 -304.2,-76.64 -88.1,-51.1 -156.1,-122.23 -204,-213.43 -48,-91.19 -71.9,-194.93 -71.9,-311.27 m 846.6,-2.36 c 0,-100.63 -23.2,-180.81 -69.6,-240.53 -46.4,-59.76 -112,-89.58 -196.9,-89.58 -83.4,0 -148.2,29.82 -194.5,89.58 -46.4,59.72 -69.6,139.9 -69.6,240.53 0,100.6 23.2,181.6 69.6,242.9 46.3,61.33 111.1,91.98 194.5,91.98 84.9,0 150.5,-30.65 196.9,-91.98 46.4,-61.3 69.6,-142.3 69.6,-242.9 m 521.1,-209.85 c 0,-117.94 33.8,-212.64 101.4,-284.16 67.6,-71.56 157.2,-107.33 268.9,-107.33 88,0 161.9,14.99 221.6,44.81 l -42.4,249.98 c -29.9,-12.59 -63.7,-18.88 -101.4,-18.88 -45.6,0 -80.6,14.16 -105,42.45 -24.4,28.32 -36.5,69.16 -36.5,122.62 v 1230.97 h -306.6 z m 1832.3,-365.52 -426.8,608.38 c 102.1,92.77 178,169.8 227.5,231.13 49.6,61.3 83,113.98 100.3,158 17.2,43.98 27.5,94.3 30.6,150.91 h -316 c -3.2,-39.3 -13.7,-75.85 -31.8,-109.64 -18.1,-33.84 -55.4,-79 -112,-135.61 -56.6,-56.58 -144.7,-134.43 -264.2,-233.46 v 976.27 h -306.5 V 3414.16 h 306.5 v 351.36 l 120.3,94.34 294.8,-445.7 z m 33,110.82 c 53.4,-44.02 121.4,-78.64 204,-103.78 82.5,-25.1 170.1,-37.73 262.9,-37.73 133.6,0 240.1,33.05 319.6,99.06 79.3,66.02 119.1,155.64 119.1,268.83 0,84.9 -21.7,153.67 -64.9,206.34 -43.2,52.64 -114.4,97.06 -213.4,133.26 l -184,73.09 c -29.8,10.98 -51.8,23.57 -66,37.73 -14.1,14.16 -21.2,32.22 -21.2,54.25 0,25.1 9.8,45.17 29.5,60.12 19.6,14.91 47.5,22.42 83.7,22.42 55,0 113.5,-9.87 175.7,-29.5 62,-19.68 112.8,-44.42 152.1,-74.28 l 101.4,221.69 c -48.8,42.45 -111.7,75.81 -188.7,100.2 -77,24.36 -160.3,36.55 -249.9,36.55 -124.2,0 -223.7,-31.83 -298.4,-95.48 -74.6,-63.7 -112,-145.84 -112,-246.44 0,-81.79 22.5,-149.77 67.2,-203.99 44.8,-54.25 113.6,-99.45 206.4,-135.61 l 186.3,-70.73 c 59.7,-22.03 89.6,-55.04 89.6,-99.06 0,-29.87 -12.2,-53.47 -36.6,-70.74 -24.4,-17.31 -59.3,-25.93 -104.9,-25.93 -64.5,0 -125,9.8 -181.6,29.47 -56.6,19.63 -106.1,46.78 -148.6,81.36 z M 15068,4593.23 c -78.6,0 -146.2,-14.56 -202.8,-43.63 -56.6,-29.11 -100.6,-68.02 -132.1,-116.73 h -4.7 v 627.27 h -306.5 V 3536.79 c 154,-102.21 330.1,-153.32 528.2,-153.32 124.2,0 232.3,25.57 324.2,76.68 92,51.07 162.4,123.77 211.1,218.11 48.7,94.34 73.1,204.34 73.1,330.16 0,111.61 -20,211.81 -60.1,300.65 -40.1,88.79 -97.1,158.39 -171,208.7 -73.9,50.28 -160.4,75.46 -259.4,75.46 m -122.6,-936.18 c -89.6,0 -162,20.38 -217,61.3 v 377.33 c 0,66.01 24.4,121.44 73.1,166.21 48.7,44.81 106.9,67.24 174.5,67.24 84.9,0 150.6,-29.47 196.9,-88.44 46.4,-58.97 69.6,-139.55 69.6,-241.72 0,-106.93 -25.6,-190.65 -76.6,-251.15 -51.1,-60.51 -124.6,-90.77 -220.5,-90.77 m 1738,242.9 v 228.73 c 0,146.2 -42.5,260.17 -127.4,341.92 -84.9,81.75 -202.8,122.63 -353.7,122.63 -114.8,0 -213,-24.74 -294.8,-74.28 -81.8,-49.53 -141.5,-119.91 -179.2,-211.06 l 231.1,-120.27 c 45.6,99.06 121,148.59 226.4,148.59 59.7,0 106.5,-18.53 140.3,-55.43 33.8,-36.94 50.7,-87.65 50.7,-152.1 v -80.17 c -70.7,20.41 -145.4,30.64 -224,30.64 -140,0 -249.6,-31.83 -329,-95.52 -79.4,-63.65 -119.1,-151.31 -119.1,-262.92 0,-100.64 33,-181.99 99.1,-244.08 66,-62.12 153.2,-93.16 261.7,-93.16 86.5,0 161.9,19.28 226.4,57.8 64.4,38.51 110,91.54 136.8,159.17 h 7 l 18.9,-186.28 h 271.2 z m -544.8,-282.98 c -47.1,0 -83.3,10.97 -108.5,33 -25.1,22 -37.7,53.43 -37.7,94.31 0,42.45 16.9,75.49 50.7,99.06 33.8,23.56 80.6,35.37 140.3,35.37 67.6,0 132.1,-8.66 193.4,-25.93 0,-69.2 -22.4,-125.81 -67.2,-169.8 -44.8,-44.02 -101.8,-66.01 -171,-66.01 m 1455,976.26 c -88.1,0 -163.9,-18.1 -227.6,-54.21 -63.6,-36.2 -111.2,-88.09 -142.6,-155.68 h -7.1 l -16.5,179.24 h -275.9 l 49.5,-504.63 v -643.79 h 306.6 v 693.28 c 0,59.76 19.2,109.25 57.7,148.59 38.5,39.27 86.9,58.94 145.1,58.94 61.3,0 111.2,-19.67 149.7,-58.94 38.5,-39.34 57.8,-88.83 57.8,-148.59 v -693.28 h 306.6 v 731.01 c 0,135.22 -37,243.68 -110.9,325.43 -73.9,81.75 -171.4,122.63 -292.4,122.63 m 1768.6,-1179.07 -426.8,608.38 c 102.1,92.77 178,169.8 227.5,231.13 49.5,61.3 82.9,113.98 100.3,158 17.2,43.98 27.5,94.3 30.6,150.91 h -316 c -3.1,-39.3 -13.8,-75.85 -31.8,-109.64 -18.1,-33.84 -55.5,-79 -112,-135.61 -56.6,-56.58 -144.7,-134.43 -264.2,-233.46 v 976.27 h -306.5 V 3414.16 h 306.5 v 351.36 l 120.3,94.34 294.8,-445.7 h 377.3"
         style="fill:#2c60b5;fill-opacity:1;fill-rule:nonzero;stroke:none"
         transform="matrix(0.13333333,0,0,-0.13333333,0,767.17333)" />
    </g>
  </g>
</svg>
